<?xml version="1.0" encoding="utf-8"?>
<!-- Generator: Adobe Illustrator 20.1.0, SVG Export Plug-In . SVG Version: 6.00 Build 0)  -->
<svg version="1.1" id="Logo" xmlns="http://www.w3.org/2000/svg" xmlns:xlink="http://www.w3.org/1999/xlink" x="0px" y="0px"
	 viewBox="0 0 512 512" style="enable-background:new 0 0 512 512;" xml:space="preserve">
<g>
	<path style="fill:#FFFFFF;" d="M256,79.77c57.397,0,64.196,0.219,86.863,1.253c20.958,0.956,32.341,4.458,39.916,7.402
		c10.034,3.899,17.195,8.558,24.716,16.08c7.522,7.522,12.181,14.683,16.08,24.717c2.944,7.575,6.446,18.957,7.402,39.915
		c1.034,22.667,1.253,29.466,1.253,86.863s-0.219,64.196-1.253,86.863c-0.956,20.958-4.458,32.341-7.402,39.916
		c-3.899,10.034-8.558,17.195-16.08,24.717c-7.522,7.522-14.683,12.181-24.717,16.08c-7.575,2.944-18.957,6.446-39.916,7.402
		c-22.664,1.034-29.462,1.253-86.863,1.253s-64.199-0.219-86.863-1.253c-20.958-0.956-32.341-4.458-39.916-7.402
		c-10.034-3.899-17.195-8.558-24.717-16.08c-7.522-7.522-12.181-14.683-16.08-24.717c-2.944-7.575-6.445-18.957-7.402-39.915
		C79.989,320.196,79.77,313.397,79.77,256s0.219-64.196,1.253-86.863c0.956-20.958,4.458-32.341,7.402-39.916
		c3.899-10.034,8.558-17.195,16.08-24.717c7.522-7.522,14.683-12.181,24.717-16.08c7.575-2.944,18.957-6.445,39.915-7.402
		C191.804,79.989,198.603,79.77,256,79.77 M256,41.038c-58.38,0-65.701,0.247-88.629,1.293c-22.881,1.044-38.506,4.678-52.18,9.992
		c-14.135,5.493-26.124,12.844-38.074,24.794c-11.95,11.951-19.301,23.939-24.794,38.074c-5.314,13.674-8.948,29.299-9.992,52.18
		c-1.046,22.928-1.293,30.248-1.293,88.629c0,58.38,0.247,65.701,1.293,88.629c1.044,22.881,4.678,38.506,9.992,52.18
		c5.493,14.135,12.844,26.124,24.794,38.074c11.951,11.95,23.939,19.301,38.074,24.794c13.674,5.314,29.299,8.948,52.18,9.992
		c22.928,1.046,30.248,1.293,88.629,1.293s65.701-0.247,88.629-1.293c22.881-1.044,38.506-4.678,52.18-9.992
		c14.135-5.493,26.124-12.844,38.074-24.794c11.95-11.951,19.301-23.939,24.794-38.074c5.314-13.674,8.948-29.299,9.992-52.18
		c1.046-22.928,1.293-30.248,1.293-88.629s-0.247-65.701-1.293-88.629c-1.044-22.881-4.678-38.506-9.992-52.18
		c-5.493-14.135-12.844-26.124-24.794-38.074c-11.951-11.95-23.939-19.301-38.074-24.794c-13.674-5.314-29.299-8.948-52.18-9.992
		C321.701,41.285,314.38,41.038,256,41.038L256,41.038z"/>
	<path style="fill:#FFFFFF;" d="M256,145.614c-60.965,0-110.386,49.421-110.386,110.386S195.035,366.386,256,366.386
		S366.386,316.965,366.386,256S316.964,145.614,256,145.614z M256,327.654c-39.573,0-71.654-32.081-71.654-71.654
		s32.081-71.654,71.654-71.654c39.573,0,71.654,32.081,71.654,71.654S295.573,327.654,256,327.654z"/>
	<circle style="fill:#FFFFFF;" cx="370.747" cy="141.253" r="25.795"/>
</g>
</svg>
