<?xml version="1.0" standalone="no"?>
<!DOCTYPE svg PUBLIC "-//W3C//DTD SVG 1.1//EN" "http://www.w3.org/Graphics/SVG/1.1/DTD/svg11.dtd" >
<svg xmlns="http://www.w3.org/2000/svg">
<metadata></metadata>
<defs>
<font id="pulsarjsregular" horiz-adv-x="2048" >
<font-face units-per-em="2048" ascent="1638" descent="-410" />
<missing-glyph horiz-adv-x="500" />
<glyph horiz-adv-x="0" />
<glyph unicode="&#xd;" />
<glyph unicode="#" d="M296 744q160 160 320 318q120 122 242 18q-40 -42 -82 -82q-40 22 -78 -18q-158 -158 -320 -318q-48 -48 0 -98l156 -156q20 -20 42 -24q28 -4 56 24l320 320q26 28 24 56q-2 10 -8 22q42 40 82 82q8 -8 14 -16q82 -114 -30 -228q-160 -158 -320 -318q-98 -98 -200 -44 q-30 14 -60 46l-156 156q-132 130 -2 260zM736 838q0 28 20 50q214 212 428 428q20 20 50 22q30 -2 51 -23t23 -51q-2 -30 -22 -50l-428 -428q-22 -20 -50 -20q-32 -2 -52 19t-20 53zM992 1214q-104 120 16 242l318 318q130 130 262 0l156 -156l32 -34q82 -114 -32 -228 l-318 -318q-100 -100 -200 -46q-22 10 -42 30l82 82q10 -6 22 -8q28 -4 56 24l318 318q28 30 26 58q-4 20 -26 40l-154 156q-50 50 -100 0l-318 -318q-38 -40 -16 -78z" />
<glyph unicode="0" d="M320 1060q-142 -422 262 -820q-182 360 -70 616q110 256 552 206v-378l652 600l-652 572v-368q-596 6 -744 -428z" />
<glyph unicode="1" d="M518 508q20 252 270 324q84 22 168 14q-56 476 -78 952q-2 34 36 42q28 10 58 14q292 -222 460 -538q60 -114 6 -224q-34 -66 -98 -54q-56 208 -214 364q-20 20 -42 34q62 -392 72 -788q4 -112 -70 -196q-176 -206 -430 -132q-148 42 -138 188z" />
<glyph unicode="2" d="M596 316v1394q0 34 26 54q22 26 54 26h658q36 0 58 -26q24 -20 24 -54v-1394q0 -36 -18 -44q-18 -10 -46 12l-284 228q-26 22 -62 22t-66 -22l-282 -228q-26 -22 -44 -12q-18 8 -18 44z" />
<glyph unicode="3" d="M80 544v1008q0 256 256 256h584v-160h-584q-96 0 -96 -96v-1008q0 -96 96 -96h1328q96 0 96 96v1008q0 96 -96 96h-10v160h10q256 0 256 -256v-1008q0 -256 -256 -256h-1328q-256 0 -256 256zM1000 900v976q0 24 18 38q14 18 38 18h460q24 0 40 -18q18 -14 18 -38v-976 q0 -24 -14 -30q-12 -6 -32 8l-198 160q-18 16 -44 16q-24 0 -44 -16l-200 -160q-16 -14 -30 -8q-12 6 -12 30z" />
<glyph unicode="4" d="M448 260v884h112v252q2 182 132 310q128 130 312 130t312 -130q132 -130 132 -312v-250h104v-884h-1104zM736 1144h538q0 122 -2 246v6l-4 52q-8 24 -16 50q-12 22 -24 46l-34 40l-38 32q-24 12 -48 26q-24 6 -50 14l-54 6l-54 -6q-26 -8 -50 -14q-24 -14 -48 -26 q-18 -16 -38 -32l-34 -40q-12 -24 -24 -46l-16 -50l-4 -52v-2v-4v-246z" />
<glyph unicode="5" d="M448 260v884h1104v-884h-1104zM560 1200v196q2 182 132 310q128 130 311 130t313 -130t130 -312v-68h-172q0 32 -2 64v6q0 26 -6 52q-4 24 -15 49t-25 47q-12 20 -32 40q-20 18 -40 32q-18 12 -46 26q-26 10 -50 14q-26 6 -54 6t-54 -6q-26 -4 -52 -14q-24 -12 -46 -26 q-18 -12 -38 -32t-34 -40q-14 -22 -24 -46t-16 -50q-6 -28 -6 -52v-2v-4v-190h-174z" />
<glyph unicode="6" d="M262 464h2q0 -4 2 -4q24 30 234 52q212 20 500 20q292 0 504 -22t230 -52q4 6 4 12v18h-2q-4 44 -26 98q-16 38 -50 102q-48 96 -54 104q-28 60 -40 100q-32 104 -40 196q-10 76 -8 196q2 104 -38 202q-36 92 -108 166q-68 72 -160 114q-94 42 -198 44h-26 q-106 -2 -200 -44q-92 -42 -160 -114q-70 -74 -108 -166q-38 -98 -38 -202q2 -120 -6 -196q-10 -92 -42 -196q-12 -40 -40 -100l-54 -104q-34 -66 -50 -106q-22 -56 -26 -102v-6q-2 -2 -2 -4v-6zM280 356q2 -16 142 -36q106 -12 246 -16q-2 0 -2 2q-24 36 -36 78l-8 26 q-112 -4 -200 -16q-140 -18 -142 -38zM760 432q2 -8 2 -16q0 -12 4 -24l4 -16q4 -12 10 -22q0 -4 2 -8q20 -42 56 -82q30 -32 68 -52q54 -28 122 -28t122 28q36 20 68 52q36 40 54 82q2 2 4 6l8 24l6 16l4 24v14h-2q-24 2 -48 2q-118 4 -246 4q-98 0 -188 -4h-48h-2z M1384 304q116 4 208 16q136 20 138 36q-2 20 -138 38q-74 10 -166 14q0 -12 -6 -24q-12 -44 -34 -78z" />
<glyph unicode="7" d="M80 544v1008q0 256 256 256h1328q256 0 256 -256v-1008q0 -256 -256 -256h-1328q-256 0 -256 256zM240 544q0 -96 96 -96h1328q96 0 96 96v502q-6 2 -12 6q-6 6 -6 14t6 14t12 6v466q0 96 -96 96h-1328q-96 0 -96 -96v-466q8 0 12 -6q6 -6 6 -14t-6 -14q-4 -4 -12 -6 v-502zM302 1066q0 8 6 14t14 6h60q8 0 14 -6t6 -14t-6 -14t-14 -6h-60q-8 0 -14 6t-6 14zM446 1066q0 8 6 14t14 6h60q8 0 14 -6t6 -14t-6 -14t-14 -6h-60q-8 0 -14 6t-6 14zM532 1404l212 110h164v-428h50q8 0 14 -6t6 -14t-6 -14t-14 -6h-50v-458h-186v458h32q-8 0 -14 6 t-6 14t6 14t14 6h-32v252h-2q-78 -40 -158 -80q-14 72 -30 146zM590 1066q0 8 6 14t14 6h60q8 0 14 -6t6 -14t-6 -14t-14 -6h-60q-8 0 -14 6t-6 14zM816 1046h82q-8 0 -14 6t-6 14t6 14t14 6h-82q6 0 12 -6t6 -14t-6 -14t-12 -6zM964 588v124l92 120q60 76 154 212v2h-24 q-8 0 -14 6t-6 14t6 14t14 6h46q16 30 24 58q18 52 18 98q0 58 -32 92q-30 36 -86 36q-40 0 -80 -16q-28 -10 -58 -30l-36 142q36 24 88 40q60 20 120 20q72 0 128 -24q48 -22 80 -62q30 -36 46 -86q14 -44 14 -96q0 -64 -20 -126q-2 -12 -6 -24q-6 -10 -10 -22h-30 q6 0 12 -6t6 -14t-6 -14t-12 -6h12l-4 -6l-10 -20q-28 -50 -70 -104l-134 -162v-2h284v-164h-506zM1022 1066q0 8 6 14t14 6h60q8 0 14 -6t6 -14t-6 -14t-14 -6h-60q-8 0 -14 6t-6 14zM1248 1046h82q-8 0 -14 6t-6 14t6 14t14 6h-82q6 0 12 -6t6 -14t-6 -14t-12 -6z M1454 1066q0 8 6 14t14 6h60q8 0 14 -6t6 -14t-6 -14t-14 -6h-60q-8 0 -14 6t-6 14zM1598 1066q0 8 6 14t14 6h60q8 0 14 -6t6 -14t-6 -14t-14 -6h-60q-8 0 -14 6t-6 14z" />
<glyph unicode="8" d="M196 554v434q-4 36 22 70l430 530q6 6 16 6h674q12 0 16 -6l432 -530q22 -34 20 -74v-430q0 -50 -50 -50h-1510q-50 0 -50 50zM360 1034h266l204 -180h340l208 180h264l-330 440h-624z" />
<glyph unicode="9" d="M288 1284l652 572v-368q596 6 744 -428q142 -422 -262 -822q182 362 70 618q-110 256 -552 206v-378z" />
<glyph unicode="@" d="M284 812l652 -572v368q596 -6 744 428q142 422 -262 820q182 -360 70 -616q-110 -256 -552 -206v378z" />
<glyph unicode="A" d="M200 244v1414q244 114 486 228v-1416q-242 -114 -486 -226zM756 470v1416l488 -252v-1414zM1314 218v1414q242 64 486 128v-1414q-244 -64 -486 -128z" />
<glyph unicode="B" d="M256 1048q0 312 218 532q222 220 532 220t530 -220t220 -532t-220 -532t-530 -220t-532 220q-218 220 -218 532zM360 1047q0 -269 188 -457q190 -192 458 -192t456 192q190 188 190 457t-190 459q-188 190 -456 190t-458 -190q-188 -190 -188 -459zM894 1049q0 47 32 81 q20 20 46 28v4v408q0 14 10 24t24 10t24 -10t10 -24v-408v-4q26 -8 48 -28q10 -12 18 -24h2l262 76q12 4 26 -2q12 -6 16 -20v-7q0 -10 -4 -19q-6 -12 -20 -16l-260 -76l-8 -2q-4 -40 -32 -70q-36 -34 -82 -34t-80 34q-32 32 -32 79z" />
<glyph unicode="C" d="M40 868v514q0 150 110 258q108 108 260 108h1180q152 0 260 -108q110 -108 110 -258v-514q0 -150 -109 -258t-261 -108h-686q-204 -168 -408 -334q-24 -20 -44 -20q-9 0 -16 4q-26 12 -26 56v294q-152 0 -261 108t-109 258z" />
<glyph unicode="D" d="M140 1180v356q0 64 38 116l16 20h2q56 56 134 56h798q76 0 132 -56q56 -58 56 -136v-356q0 -80 -56 -136t-132 -56h-486l-252 -210v208l-60 2q-78 0 -134 56q-10 8 -18 20q-38 50 -38 116zM600 704v92q44 34 86 70h442q126 0 216 92q2 0 2 2q92 90 92 220v132h210 q102 0 176 -74q76 -76 76 -178v-356q0 -104 -76 -178q-74 -76 -176 -76v-204q0 -28 -16 -36q-6 -2 -12 -2q-14 0 -30 12l-276 230h-464q-100 0 -176 76q-74 74 -74 178z" />
<glyph unicode="E" d="M20 48q24 600 506 600h902q484 0 512 -600h-1920zM470 1326q0 218 154 368q154 154 370 154t370 -154q154 -150 154 -368q0 -214 -154 -370q-154 -152 -370 -152t-370 152q-154 156 -154 370z" />
<glyph unicode="F" d="M100 642q8 288 240 288h426q54 -40 118 -58h-216q-264 0 -348 -230h-220zM288 1320q0 98 70 168q68 68 164 68q52 0 94 -20q-58 -94 -58 -214t58 -216q-42 -20 -94 -20q-96 0 -164 70q-70 68 -70 164zM356 462q10 96 40 166q74 168 272 168h656q194 0 270 -162 q32 -72 44 -172h-1282zM634 1322q0 112 58 198q20 32 48 58q108 110 258 110q148 0 256 -110q32 -32 54 -68q50 -82 50 -188q0 -98 -44 -176q-24 -44 -60 -82q-108 -108 -256 -108q-152 0 -258 108q-28 28 -48 58q-58 88 -58 200zM1110 872q66 18 124 60q18 4 40 4h426 q228 0 240 -288h-268q-88 224 -348 224h-214zM1378 1532q51 34 115 34h7q96 0 166 -68q68 -68 68 -166q0 -96 -68 -166q-70 -68 -166 -68q-62 0 -112 28q44 88 44 196q0 118 -54 210z" />
<glyph unicode="G" d="M294 1046q0 302 214 516t516 214t516 -214q54 -54 96 -116l182 106l-86 -488l-468 170q100 58 202 114q-30 42 -64 76q-156 158 -378 158t-378 -158q-158 -156 -158 -378t158 -376q156 -158 378 -158t378 158q34 34 64 74q36 50 56 106l186 -64q-12 -36 -18 -42 q-54 -116 -150 -212q-214 -214 -516 -214t-516 214q-214 212 -214 514z" />
<glyph unicode="H" d="M316 1460q60 216 256 332v2q133 74 274 74q73 0 148 -20q224 -58 334 -258v2q78 -133 78 -274q0 -72 -20 -146q-38 -136 -130 -236l352 -506q9 -15 9 -35q0 -28 -19 -63q-34 -56 -78 -80q-38 -24 -89 -24h-15q-68 0 -90 40l-260 538q-101 -44 -209 -44q-73 0 -149 20 q-224 60 -340 258q-73 130 -73 269q0 74 21 151zM476 1416q-16 -55 -16 -109q0 -97 52 -187v4q82 -144 236 -184q54 -14 105 -14q100 0 191 54h4q140 80 180 236q13 51 13 101q0 100 -53 193q-80 140 -238 182q-52 14 -103 14q-99 0 -193 -54q-138 -82 -178 -236z" />
<glyph unicode="I" d="M444 1314q0 236 164 398q162 158 398 158q230 0 394 -166t164 -390q0 -188 -280 -658l-278 -428q-140 192 -282 424q-280 466 -280 662zM680 1338q0 -130 92 -218q94 -94 223 -94t221 94q92 88 92 218q0 126 -92 218q-92 90 -221 90t-223 -90q-92 -92 -92 -218z" />
<glyph unicode="J" d="M162 1250q14 54 80 64l402 78q18 2 39 17t27 29l194 348q34 66 92 66q38 0 68 -30q18 -20 28 -40l188 -344q10 -14 31 -29t35 -17l404 -78q62 -10 82 -64q4 -13 4 -27q0 -36 -32 -73l-280 -298q-12 -12 -20 -38q-8 -22 -6 -40l50 -408q1 -9 1 -18q0 -40 -23 -66 q-27 -30 -66 -30q-24 0 -52 12l-370 174q-16 8 -42 8q-24 0 -40 -8l-374 -174q-24 -12 -48 -12q-42 0 -68 30q-24 28 -24 71v13l52 408q4 16 -6 40q-8 24 -18 38l-282 298q-31 34 -31 70q0 15 5 30z" />
<glyph unicode="K" d="M194 1302q4 98 44 184q34 78 100 138q62 60 142 91q75 29 154 29h10q20 0 42 -4q124 -16 208 -80q64 -52 100 -132q36 80 102 132q80 64 204 80q26 3 51 3q61 0 121 -17q84 -24 152 -78q72 -58 114 -136q46 -84 54 -184q2 -23 2 -47q0 -205 -156 -425 q-202 -286 -640 -552q0 2 -4 2q-2 0 -4 -2q-424 256 -630 536q-166 229 -166 442v20z" />
<glyph unicode="L" d="M162 372q-14 26 -14 55q0 44 32 97l690 1172q52 90 126 90q78 0 128 -90l694 -1172q33 -54 33 -99q0 -28 -13 -53q-34 -62 -138 -62h-1400q-104 0 -138 62zM900 640q0 -44 28 -74q30 -28 72 -28q40 0 68 28q28 30 28 74q0 38 -28 66q-28 32 -68 32q-42 0 -72 -32 q-28 -26 -28 -66zM922 936q0 -32 24 -54q20 -22 54 -22q30 0 50 22q24 22 24 54v350q0 30 -24 54q-20 20 -50 20q-34 0 -54 -20q-24 -24 -24 -54v-350z" />
<glyph unicode="M" d="M200 1048q0 330 236 566q232 234 564 234q334 0 566 -234q234 -236 234 -566q0 -332 -234 -566q-232 -234 -566 -234q-332 0 -564 234q-236 234 -236 566zM592 960q0 -16 10 -26t26 -10h212q14 0 26 -12q10 -10 10 -24v-214q0 -14 10 -26q12 -8 26 -8h178q14 0 24 8 q12 12 12 26v214q0 14 10 24q10 12 24 12h214q14 0 24 10q12 10 12 26v176q0 16 -12 24q-10 12 -24 12h-214q-14 0 -24 12q-10 8 -10 24v214q0 14 -11 25t-25 11h-178q-14 0 -26 -12q-10 -10 -10 -24v-214q0 -16 -10 -24q-12 -12 -26 -12h-212q-16 0 -26 -12q-10 -8 -10 -24 v-176z" />
<glyph unicode="N" d="M200 1048q0 332 236 566q234 234 564 234q332 0 566 -234t234 -566t-234 -564q-234 -236 -566 -236q-330 0 -564 236q-236 232 -236 564zM592 960q0 -16 10 -26t26 -10h746q14 0 26 10q8 10 8 26v176q0 16 -8 26q-12 10 -26 10h-746q-16 0 -26 -10t-10 -26v-176z" />
<glyph unicode="O" d="M200 1048q0 332 236 566q234 234 564 234q334 0 566 -234q234 -234 234 -566t-234 -564q-232 -236 -566 -236q-330 0 -564 236q-236 232 -236 564zM664 1288q0 -52 36 -80q32 -28 82 -28q60 0 103 113t111 113q64 0 100 -48q28 -36 28 -74q0 -24 -34 -68l-76 -88 q-110 -132 -110 -244q0 -56 36 -86q30 -22 78 -22q72 0 92 72q28 108 54 136q48 52 124 128q50 64 50 146q0 134 -80 238q-94 122 -254 122q-90 0 -188 -54q-152 -90 -152 -276zM870 604q0 -52 36 -90q36 -36 88 -36t90 36q36 38 36 90t-36 88q-38 36 -90 36t-88 -36 t-36 -88z" />
<glyph unicode="P" d="M200 1048q0 332 236 566q234 234 564 234q334 0 566 -234q234 -234 234 -566t-234 -564q-232 -236 -566 -236q-330 0 -564 236q-236 232 -236 564zM822 1390q0 -74 52 -126t126 -52t126 52t52 126t-52 126t-126 52t-126 -52t-52 -126zM864 664q6 -84 58 -118 q28 -18 68 -18q94 0 116 44q30 56 30 276q0 196 -44 270q-30 50 -88 50q-80 0 -114 -64q-37 -73 -37 -235q0 -89 11 -205z" />
<glyph unicode="Q" d="M152 1128q6 52 46 86q32 27 74 27q8 0 16 -1q50 -4 84 -44l398 -338l860 802q36 38 88 40h6q48 0 84 -32q36 -34 40 -86v-5q0 -47 -34 -83l-960 -1058q-22 -26 -58 -36q-16 -5 -33 -5l-39 7q-32 12 -58 40l-486 596q-28 36 -28 79v11z" />
<glyph unicode="R" d="M516 942v210q0 16 12 30q12 12 30 12h886q18 0 30 -12q12 -14 12 -30v-210q0 -18 -12 -30t-30 -12h-886q-18 0 -30 12t-12 30z" />
<glyph unicode="S" d="M544 794q0 20 12 32l190 190q14 14 14 32t-12 32l-190 190q-14 12 -14 31t14 31l158 160q12 12 32 12q18 0 32 -12l190 -190q12 -14 32 -14q18 0 30 14l190 190q14 12 32 12q20 0 32 -12l158 -160q14 -12 14 -31t-14 -31l-190 -190q-12 -14 -12 -32t14 -32l190 -190 q12 -12 12 -32t-14 -32l-158 -158q-12 -12 -32 -14q-18 2 -30 14l-190 190q-14 12 -32 14q-20 -2 -32 -14l-192 -190q-12 -12 -30 -14q-20 2 -32 14l-158 158q-14 12 -14 32z" />
<glyph unicode="T" d="M460 930v236q0 18 14 32t34 14h280q20 0 34 14t14 34v280q0 20 14 34t32 14h236q18 0 32 -14t14 -34v-280q0 -20 14 -34t34 -14h282q18 0 32 -14t14 -32v-236q0 -18 -14 -32t-32 -14h-282q-20 0 -34 -14t-14 -34v-282q0 -18 -14 -32t-32 -14h-236q-18 0 -32 14t-14 32 v282q0 20 -14 34t-34 14h-280q-20 0 -34 14t-14 32z" />
<glyph unicode="U" d="M512 872q0 14 10 22l458 458q8 10 22 10q12 0 20 -10l458 -458q10 -8 10 -22q0 -12 -10 -20l-110 -110q-8 -10 -20 -10t-22 10l-326 326q-164 -164 -328 -326q-8 -10 -22 -10q-12 0 -20 10l-110 110q-10 8 -10 20z" />
<glyph unicode="V" d="M512 1222q0 12 8 22l110 110q10 8 22 8t22 -8l326 -328l326 328q10 8 22 8t22 -8l110 -110q8 -10 8 -22t-8 -22l-458 -458q-10 -8 -22 -8t-22 8l-458 458q-8 10 -8 22z" />
<glyph unicode="W" d="M686 1046q0 14 8 22l458 458q10 10 22 10t22 -10l110 -110q8 -8 8 -20q0 -14 -8 -22l-328 -328l328 -326q8 -10 8 -22t-8 -20l-110 -110q-10 -10 -22 -10t-22 10l-458 458q-8 8 -8 20z" />
<glyph unicode="X" d="M686 700q0 14 8 24q164 164 328 326l-328 326q-8 10 -8 22t8 22l110 108q10 10 22 10t22 -10l458 -456q8 -10 8 -22q0 -14 -8 -22l-458 -458q-10 -10 -22 -10t-22 10l-110 110q-8 8 -8 20z" />
<glyph unicode="Y" d="M114 996q0 12 4 28q4 14 12 32l174 176l648 646q8 8 24 12q14 4 28 4q48 0 80 -52l552 -550l62 -64l174 -174q4 -4 8 -16t4 -16q0 -54 -24 -84t-66 -30l-22 2q-22 4 -30 6l-72 72l-92 -720q2 -34 -18 -54q-18 -18 -50 -18h-1016q-30 6 -36 8q-12 4 -18 10t-10 20 q-2 6 -8 34l-90 724l-40 -40q-16 -18 -24 -24q-10 -10 -19 -13t-23 -3q-50 0 -82 24q-30 26 -30 60zM752 1084q0 -102 74 -174q72 -74 174 -74t176 74q72 72 72 174t-72 174q-74 72 -176 72t-174 -72q-74 -72 -74 -174zM910 538q0 -38 26 -66q26 -26 64 -26q36 0 64 26 q28 28 28 66q0 36 -28 64q-28 26 -64 26q-38 0 -64 -26q-26 -28 -26 -64z" />
<glyph unicode="Z" d="M186 228l248 528l278 -276zM488 814l808 812l278 -278l-808 -814zM1382 1714l144 144q10 10 34 10h8q56 -6 146 -98q92 -90 100 -150l-10 -36l-144 -150z" />
<glyph unicode="a" d="M80 616q0 -326 322 -326h1190q324 0 324 326v752l-160 -160v-592q0 -166 -164 -166h-1190q-162 0 -162 166v872q0 162 162 162h852l158 160h-1010q-322 0 -322 -322v-872zM388 562l460 148l-200 258zM698 1010l200 -260l756 582l-202 256zM1532 1650l202 -258l134 108 l12 30q0 48 -66 134q-64 84 -112 92q-12 2 -20 2t-14 -4z" />
<glyph unicode="b" d="M80 544v1008v14q0 108 60 174q64 68 183 68h13h1328h14q108 0 174 -60q68 -64 68 -183v-13v-1008v-13q0 -49 -13 -91q-15 -48 -47 -82q-34 -36 -80 -54q-43 -16 -96 -16h-12h-1336h-14q-108 0 -172 60q-70 65 -70 183v13zM240 544v-6q0 -38 23 -64t61 -26h6h1340h6 q38 0 61 26t23 64v6v1008v7q0 39 -22 63q-24 26 -68 26h-6h-1328q-7 1 -13 1q-13 0 -25 -5q-20 -6 -34 -20t-20 -34q-4 -14 -4 -28v-10v-1008zM360 692v8q2 8 4 12l410 714q6 10 18 16q8 6 19 6t19 -4q12 -4 18 -14l268 -374l-50 -76q-4 -6 -6 -12t-2 -14q0 -16 14 -29 t34 -13q10 0 18 6q4 4 18 16l136 210q20 14 22 16q6 4 16 4q14 0 22 -4q10 -6 16 -16l278 -430q8 -8 8 -20q0 -18 -14 -32q-12 -14 -28 -14h-4h-1190h-4q-11 0 -24 10q-16 14 -16 34z" />
<glyph unicode="c" d="M36 524v838q0 210 212 210h200l68 194q20 58 108 58h760q88 0 108 -58l68 -194h192q214 0 214 -210v-838q0 -212 -214 -212h-1504q-212 0 -212 212zM472 992q0 -216 154 -370q154 -152 372 -156q216 4 372 156q146 148 152 354v16v34q-12 196 -152 338q-156 154 -372 154 q-218 0 -372 -154q-154 -152 -154 -372zM574 992q0 176 124 302q124 122 300 122q174 0 298 -122q114 -112 126 -268v-34v-16q-6 -164 -126 -284q-124 -122 -298 -122q-176 0 -300 122q-124 128 -124 300z" />
<glyph unicode="d" d="M228 452q-3 23 -3 43q0 155 185 203q80 20 163 20q26 0 51 -2v982q288 106 684 144q180 18 312 18h26l4 -532v-250q0 -334 -4 -422q-2 -68 -66 -136q-60 -66 -146 -94q-46 -15 -88 -15t-80 15q-86 34 -130 146q-20 50 -20 93q0 123 164 181q110 40 234 40 q-4 109 -4 246.5t4 303.5q-302 0 -556 -68q-80 -22 -146 -46q-24 -12 -48 -22v-848q-32 -74 -114 -128q-80 -54 -170 -64q-17 -2 -33 -2q-74 0 -129 38q-74 48 -90 156z" />
<glyph unicode="e" d="M82 1282q6 42 40 70q380 286 882 288q488 0 874 -284q32 -26 40 -70q1 -8 1 -15q0 -33 -21 -61q-26 -38 -70 -44q-8 -1 -16 -1q-33 0 -62 21q-328 242 -746 242q-430 0 -752 -246q-29 -21 -62 -21q-8 0 -16 1q-44 6 -70 42q-23 28 -23 63q0 7 1 15zM348 1052q6 42 42 70 q262 200 612 202q340 0 606 -200q36 -26 42 -68q1 -8 1 -15q0 -35 -23 -65q-26 -34 -68 -42q-6 -1 -11 -1q-36 0 -69 23q-210 156 -478 156q-278 0 -484 -158q-33 -23 -67 -23q-5 0 -11 1q-44 6 -70 42q-23 28 -23 63q0 7 1 15zM614 822q6 42 40 68q148 116 346 118 q190 0 340 -114q36 -28 42 -70q1 -6 1 -12q0 -36 -21 -68q-30 -32 -70 -40q-7 -1 -13 -1q-38 0 -67 21q-94 72 -212 72h-7q-120 0 -207 -72q-31 -21 -66 -21q-6 0 -12 1q-44 4 -70 36q-24 33 -24 71v11zM836 520q0 68 48 116t116 48t114 -48q50 -48 50 -116t-50 -116 q-46 -44 -114 -44t-116 44q-48 48 -48 116z" />
<glyph unicode="f" d="M308 298v1500q0 56 40 96t96 40h740q20 0 32 -12l4 -6l454 -454l6 -6q12 -12 12 -32v-1126q0 -56 -40 -96l2 2q-42 -42 -98 -42h-1112q-56 0 -96 42v-2q-40 40 -40 96zM398 298q0 -18 14 -32t32 -14h1112q20 0 32 14q16 14 16 32v1082h-292q-72 0 -120 44v2 q-52 46 -52 116v302h-696q-18 0 -32 -14t-14 -32v-1500zM1228 1542q0 -30 24 -50q24 -22 60 -22h246l-330 330v-258z" />
<glyph unicode="g" d="M282 452v1186l4 30q6 22 24 42h2q28 30 70 30h254v92q0 40 30 70t72 30h586q4 0 10 -2t10 -6l368 -368q6 -6 6 -16v-2v-894q0 -40 -28 -70h-2q-28 -30 -70 -30h-70v-280q0 -40 -28 -70h-2q-30 -30 -70 -30h-882q-42 0 -72 30q-28 30 -28 70v86h-84q-42 0 -70 30 q-30 30 -30 72zM340 452q0 -18 12 -32t30 -14h84v1046l4 28q6 24 24 44q30 28 72 28h70v130h-254q-18 0 -30 -12q-10 -10 -12 -24v-8v-1186zM522 264q0 -18 13 -31t31 -13h882q16 0 30 13t14 31v280h-754q-42 0 -72 30t-30 70v852h-70q-18 0 -30 -12v-2q-10 -10 -12 -22 l-2 -8v-1188zM694 644q0 -16 12 -30q14 -14 32 -14h880q18 0 30 14t12 30v864h-236q-52 0 -90 34q-18 14 -26 34q-14 24 -14 54v246h-556q-18 0 -31 -13t-13 -31v-1188zM1352 1630q0 -22 12 -38l8 -8q20 -20 52 -20h212l-284 286v-220z" />
<glyph unicode="h" d="M92 1288q-3 22 -3 41q0 122 131 145q8 184 194 184h150q220 0 278 -14h2q60 -16 94 -78q34 -60 96 -86q30 -14 52 -14h526q190 0 194 -188q105 -29 106 -131q0 -18 -4 -39l-80 -528q-20 -132 -192 -140h-1246q-170 8 -190 140zM172 1288l96 -708q14 -92 140 -92h1210 q126 0 140 92q38 264 74 528q2 11 2 21q0 43 -28 67q-24 20 -68 26l-36 2h-606h-4q-36 2 -86 18h2q-96 34 -152 112v2q-24 34 -64 44h2q-66 12 -312 12h-180l-14 -2q-40 0 -68 -12q-50 -23 -50 -84q0 -12 2 -26zM290 1480h4h180q262 0 334 -14h2q74 -16 114 -78 q42 -60 112 -84q36 -14 62 -14h612l28 -2q-8 110 -126 110h-528h-2q-34 2 -74 18q-80 34 -128 116v2q-20 34 -52 44q-56 12 -264 12h-150q-118 0 -124 -110z" />
<glyph unicode="i" d="M304 552q8 52 32 100q282 280 562 562q-8 70 -8 90q0 180 126 306t308 126q202 0 320 -134q108 -122 108 -298t-108 -298q-118 -134 -320 -134q-10 0 -56 6q-48 8 -58 8q-12 0 -72 -64l-64 -70q-62 -2 -124 -2q-7 -52 -7 -86t7 -50q-16 7 -50.5 7t-87.5 -7q-8 -55 -8 -91 q0 -40 10 -57q-16 8 -54.5 8t-99.5 -8q-4 -30 -4 -66q0 -24 2 -50q-10 -44 -100 -44q-130 0 -200 88q-54 68 -54 158zM1366 1413q0 -49 36 -83q34 -36 83 -36t83 36q34 34 34 83t-34 85q-34 34 -83 34t-83 -34q-36 -36 -36 -85z" />
<glyph unicode="j" d="M204 1286l88 -20l28 -98l-64 -64l68 -104l84 32l78 -68l-20 -88l114 -52l54 72l100 -14l32 -84l124 18l6 88l92 44l72 -54l94 82l-42 78l56 86l88 -6l36 120l-78 42v102l78 44l-36 120l-88 -6l-56 86l42 78l-94 82l-72 -54l-92 42l-6 90l-124 18l-32 -84l-100 -14l-54 70 l-114 -52l20 -86l-78 -68l-84 32l-68 -106l64 -62l-28 -98l-88 -20v-124zM482 1348q0 112 79 190t190 78t189 -78t78 -190t-78 -190t-189 -78t-190 78t-79 190zM972 568l68 -14l20 -74l-46 -48l50 -80l64 24l58 -50l-14 -66l86 -40l40 54l76 -10l24 -64l94 14l4 66l70 32 l54 -40l72 62l-32 60l40 64l68 -4l28 90l-60 32v78l60 32l-28 90l-68 -4l-40 64l32 60l-72 62l-54 -40l-70 32l-4 66l-94 14l-24 -64l-76 -10l-40 54l-86 -40l14 -66l-58 -50l-64 24l-50 -80l46 -48l-20 -74l-68 -14v-94zM1184 615q0 85 59 144t143 59t143 -59t59 -144 t-59 -144t-143 -59t-143 59t-59 144z" />
<glyph unicode="k" d="M244 990q0 304 214 518q206 208 494 214v-762l726 228q26 -92 26 -198q0 -300 -214 -514q-214 -216 -518 -216q-302 0 -514 216q-214 214 -214 514zM1076 1120v828q266 -8 484 -168t304 -416z" />
<glyph unicode="l" d="M336 1578q0 -16 11 -27t27 -11h1216q16 0 27 11t11 27v76q0 16 -11 27t-27 11h-330v176q0 26 -20 44q-20 20 -46 20h-182h-8h-6h-226q-26 0 -46 -20q-20 -18 -20 -44v-176h-332q-16 0 -27 -11t-11 -27v-76zM374 1478l106 -1124q4 -38 34 -66t64 -28h812q36 0 66 28 q28 28 32 66l104 1124h-1218zM602 1186v8q0 42 42 42h2h52q46 0 46 -50l28 -716q2 -40 -38 -40h-46q-38 0 -40 40zM838 1692v108h160h6h8h116v-108h-290zM912 1186q-2 50 42 50h2h52q46 0 46 -50l-10 -716q0 -40 -38 -40h-46q-40 0 -40 40zM1194 470l24 716q2 50 46 50h2h54 q40 0 40 -42v-8l-42 -716q-4 -40 -44 -40h-44q-36 0 -36 33v7z" />
<glyph unicode="m" d="M270 1048q0 302 214 514q214 214 516 214t516 -214q212 -212 214 -514q-2 -302 -214 -516q-214 -212 -516 -214q-302 2 -516 214q-214 214 -214 516zM468 1048v-5q0 -216 156 -372.5t376 -156.5t376 156q156 158 156 378t-156 376t-376 156t-376 -156 q-156 -154 -156 -371v-5zM592 1048v5q0 164 118 281q0 2 2 2q118 120 288 120q168 0 286 -120q2 0 2 -2q120 -118 120 -286q0 -170 -120 -290q-120 -118 -288 -118q-170 0 -288 118q-120 120 -120 290zM788 1047q0 -87 62 -149t149 -62t149 62t64 150q-2 86 -64 146v2 q-62 62 -149 62t-149 -62t-62 -149zM894 1048q0 44 30 74q32 30 76 30t74 -30q32 -30 32 -74t-31 -75t-75 -31t-76 30q-30 32 -30 76z" />
<glyph unicode="n" d="M300 426v272q0 16 12 32q14 14 34 14h274q16 0 32 -14q14 -16 14 -32v-272q0 -18 -14 -34q-16 -14 -32 -14h-274q-20 0 -34 14q-12 16 -12 34zM300 912v274q0 16 12 32q14 12 34 12h274q16 0 32 -12q14 -16 14 -32v-274q0 -18 -14 -32q-16 -14 -32 -14h-274q-20 0 -34 14 q-12 14 -12 32zM300 1400v272q0 16 12 32q14 14 34 14h274q16 0 32 -14q14 -16 14 -32v-272q0 -18 -14 -34q-16 -14 -32 -14h-274q-20 0 -34 14q-12 16 -12 34zM788 518v88q0 20 14 34q12 12 30 12h824q18 0 30 -12q14 -14 14 -34v-88q0 -20 -14 -36q-12 -12 -30 -12h-824 q-18 0 -30 12q-14 16 -14 36zM788 1004v90q0 18 14 34q12 12 30 12h824q18 0 30 -12q14 -16 14 -34v-90q0 -18 -14 -34q-12 -14 -30 -14h-824q-18 0 -30 14q-14 16 -14 34zM788 1492v88q0 20 14 34q12 12 30 12h824q18 0 30 -12q14 -14 14 -34v-88q0 -20 -14 -36 q-12 -12 -30 -12h-824q-18 0 -30 12q-14 16 -14 36z" />
<glyph unicode="o" d="M184 968q0 112 72 204q68 86 176 116q-11 52 -11 100q0 96 43 178q50 90 148 154q84 56 208 56q104 0 194 -50q102 -58 166 -182q74 58 165 58t155 -50q76 -54 102 -136q11 -38 11 -78q0 -27 -5 -54q110 -34 172 -120q66 -84 66 -196q0 -136 -96 -232q-100 -98 -234 -98 h-194l-258 -250q-22 -20 -50 -20t-48 20l-258 250h-192q-138 0 -236 98q-96 96 -96 232zM658 782l356 -344l356 344h-180v346h-354v-346h-178z" />
<glyph unicode="p" d="M170 970q0 112 70 200q70 86 176 118q-11 51 -11 99q0 96 43 177q52 90 148 154q84 56 210 56q106 0 194 -50q104 -60 164 -182q76 58 167 58t155 -50q74 -54 100 -136q12 -38 12 -75q0 -27 -6 -53q112 -36 174 -120q64 -84 64 -196q0 -136 -94 -234q-98 -98 -236 -98 h-252v-198q0 -28 -20 -50q-20 -20 -50 -20h-354q-30 0 -50 20q-22 22 -22 50v198h-250q-138 0 -234 98q-98 98 -98 234zM644 784h180v-344h354v344h178q-178 170 -356 342z" />
<glyph unicode="q" d="M270 1528v2q-2 22 16 40q18 22 46 22h268q18 0 36 -16q18 -12 24 -34l110 -402q0 2 -2 2q8 -18 0 -40l-4 -6q-14 -26 -42 -32h-8q-18 0 -34 6l-2 2q-18 10 -26 28q-2 4 -2 8l-94 354v-2l-2 4q-4 2 -8 2h-214q-26 0 -44 18l-2 2q-16 16 -16 42zM376 1234q-10 38 -10 66.5 t10 47.5q20 62 102 62h2q6 0 11 -4t7 -10l24 -80q2 -6 0 -12t-8 -10t-12 -4h-14q0 -10 4 -24l150 -538q2 -6 6 -6h20q6 0 12 -4t8 -10t0 -12q-8 -22 -8 -48v-4q-2 -10 0 -18q2 -6 0 -12q-4 -6 -8 -10q-6 -2 -12 -2h-12q-92 0 -118 88q-2 2 -2 6zM714 648q0 22 6 40v2 q10 34 36 58l2 2q38 40 93 40h5h2q60 0 104 -42q26 -24 36 -58q4 -18 4 -42v-24q-6 -42 -40 -76l-4 -4q-42 -38 -100 -38q-60 0 -100 38h-2q-34 38 -40 82v2q-2 12 -2 20zM770 1386q-1 2 -1 4q0 4 3 8q2 6 6 8q6 4 12 4h832q78 0 100 -62q10 -19 10 -47.5t-10 -66.5 q-74 -270 -148 -538h-2q-30 -94 -124 -94h-12q-6 0 -12 2q-4 4 -6 10q-4 6 -2 10q2 10 2 22q-2 28 -8 50q-2 6 2 12q2 6 6 10q6 4 12 4h18q4 0 6 8q0 2 2 4l152 532v-2q2 16 2 26h-800q-8 0 -12 4q-6 4 -8 12zM1096 648q0 22 6 40v2q10 34 36 58l2 2q38 40 93 40h5h2h5 q57 0 99 -40q24 -26 34 -60v-2q6 -18 6 -38v-26q-8 -44 -40 -78l-2 -2q-42 -38 -102 -38t-102 38q-36 36 -40 80v4q-2 12 -2 20z" />
<glyph unicode="r" d="M488 1540q4 90 56 152q38 42 130 96l150 40q8 3 16 3q12 0 22 -7q20 -10 26 -32l112 -424q6 -22 -4 -42q-12 -18 -32 -22l-126 -36q-4 -28 -2 -62q6 -120 80 -250q74 -132 170 -198q40 -28 78 -38q2 2 104 92q16 12 38 12q22 -2 34 -18l280 -324q10 -15 10 -32v-6 q0 -20 -16 -34l-60 -48q-62 -48 -68 -48q-74 -38 -124 -48q-16 -2 -32 -2q-66 0 -134 40q-124 68 -256 218q-126 142 -232 326q-102 182 -160 362q-60 177 -60 313v17z" />
<glyph unicode="s" d="M170 610v878q0 90 90 90h1480h4q86 0 86 -90v-878q0 -92 -90 -92h-1480q-90 0 -90 92zM230 610q0 -32 30 -32h1480q30 0 30 32v878q0 30 -30 30h-1480q-30 0 -30 -30v-878zM276 635q0 11 8 19l512 462l-506 358q-6 4 -6 8q-2 8 2 12q2 6 10 6q1 1 3 1q3 0 7 -3l694 -432 l702 434q2 1 5 1t7 -1q6 0 9 -5t1 -13q-2 -6 -6 -8l-94 -66l-416 -292l522 -462q8 -8 8 -18t-8 -18t-18 -8t-18 6l-532 474l-162 -114q-4 0 -162 110l-518 -470q-6 -6 -17 -6t-19 8q-8 6 -8 17z" />
<glyph unicode="t" d="M182 810q0 34 16 60q6 10 18 26l26 32l786 788l32 30q14 16 26 24q32 20 98 20h24l450 -24q32 -8 46 -14q20 -8 32 -20t22 -32q10 -18 20 -54l24 -450v-16v-14q0 -46 -14 -78q-18 -38 -60 -70l-788 -790q-40 -34 -68 -48q-24 -10 -50 -10q-30 0 -60 18q-20 10 -56 40 l-464 466q-32 26 -48 64q-12 28 -12 52zM1356 1470q0 -54 40 -88q16 -16 38 -25t44 -9q56 0 97 40t41 96q0 18 -8 40q-8 20 -22 38q-32 44 -82 44q-28 0 -55 -10t-47 -28q-46 -38 -46 -98z" />
<glyph unicode="u" d="M170 628v780q0 200 198 200h780l-80 -124h-700q-74 0 -74 -76v-780q0 -74 74 -74h1028q74 0 74 74v110q62 46 124 94v-204q0 -198 -198 -198h-1028q-198 0 -198 198zM644 804q12 192 148 344q170 196 484 216v302q276 -210 554 -420q-278 -214 -558 -426v270 q-47 13 -99 13q-131 0 -293 -83q-226 -114 -236 -216z" />
<glyph unicode="v" d="M196 456v1106q0 4 3 7t7 3h34q80 0 196 28q68 16 200 48h4h-2q80 16 144 16q32 0 60 -4q88 -16 158 -72q72 56 162 72q27 4 59 4q63 0 143 -16q64 -12 200 -48h2q116 -28 194 -28h36q4 0 7 -3t3 -7v-1108q0 -2 -2 -4q-2 -4 -4 -4l-4 -2l-36 2q-86 0 -214 30h-2 q-134 34 -198 48q-68 13 -121 13q-26 0 -49 -3q-82 -14 -144 -74l-24 -24q-4 -4 -8 -4t-6 4l-24 24q-62 60 -142 74q-24 3 -51 3q-54 0 -121 -13h-2l-196 -48q-130 -30 -216 -30l-34 -2l-8 2q0 2 -2 4t-2 6zM286 538q66 6 150 26l198 48h4q80 16 144 16q32 0 60 -4 q54 -10 100 -36v930q-50 42 -114 52q-25 4 -54 4q-53 0 -118 -14h-2l-196 -48q-98 -22 -172 -28v-946zM1060 588q46 26 102 36q27 4 59 4q63 0 143 -16q64 -12 200 -48h2q84 -20 150 -26v946q-74 6 -170 28h-2q-134 36 -198 48q-66 14 -118 14q-28 0 -52 -4h-2 q-64 -10 -114 -52v-930z" />
<glyph unicode="w" d="M648 326q0 14 12 26q8 8 20 8v2h288v218q-112 10 -192 92q-96 94 -96 230v270q0 14 12 26q10 10 24 10t25 -11t11 -25v-140v-4v-126q0 -106 74 -178q72 -72 172 -76h4q102 4 172 76q74 72 74 178v252h2v18q0 14 10 26q10 10 25 10t25 -10q10 -12 10 -26v-140v-4v-126 q0 -136 -94 -230q-82 -82 -194 -92v-218h288v-2q12 0 22 -8q10 -12 10 -26t-10 -24t-22 -12h-640q-12 2 -20 10q-12 12 -12 26zM824 916v708q0 76 52 129t128 53q74 0 128 -54q52 -52 52 -128v-708q0 -74 -52 -128q-54 -52 -128 -52q-76 0 -128 52q-52 54 -52 128z" />
<glyph unicode="x" d="M372 1607q0 21 14 35t34 14t36 -14l1160 -1160q14 -14 14 -35t-14 -35q-14 -16 -35 -16t-35 16l-1162 1160q-12 14 -12 35zM648 326q0 14 12 26q8 8 20 8v2h288v218q-112 10 -192 92q-96 94 -96 230v270q0 14 12 24l60 -60v-104v-4v-126q0 -106 74 -178q72 -72 172 -76h4 q98 4 166 70l52 -52q-80 -76 -188 -86v-218h288v-2q12 0 22 -8q10 -12 10 -26t-10 -24t-22 -12h-640q-12 2 -20 10q-12 12 -12 26zM824 916v148l292 -292q-50 -36 -112 -36q-76 0 -128 52q-52 54 -52 128zM824 1344v280q0 76 52 129t128 53q74 0 128 -54q52 -52 52 -128 v-640zM1248 920v234v18q0 14 12 26q8 10 24 10t26 -10q10 -12 10 -26v-140v-4v-126q0 -26 -4 -52z" />
<glyph unicode="y" d="M340 765q0 193 138 333q304 302 608 606q98 100 238 100q130 0 238 -100q100 -102 100 -242t-100 -238l-544 -540q-58 -60 -140 -60q-84 0 -144 60q-58 56 -58 144q0 80 58 144l396 396l96 -96l-396 -396q-18 -22 -18 -48q0 -32 18 -52q26 -16 48 -16q18 0 46 16l540 546 q62 54 62 140q0 90 -62 144q-54 58 -140 58q-90 0 -144 -58l-608 -604q-100 -98 -100 -238t100 -238q108 -98 240 -98q138 0 238 98l446 446l18 12q8 -6 18 -12l62 -64q8 -8 14 -18q-230 -230 -460 -458q-138 -140 -336 -140q-196 0 -334 140t-138 333z" />
<glyph unicode="z" d="M118 808q0 -198 198 -198h862q198 0 198 198v486q0 198 -198 198h-862q-198 0 -198 -198v-486zM1444 890l440 -286v882l-440 -284v-312z" />
<glyph unicode="|" d="M320 1036q-142 422 262 820q-182 -360 -70 -616q110 -256 552 -206v378l652 -600l-652 -572v368q-596 -6 -744 428z" />
<glyph unicode="&#xa2;" d="M210 1044l2 12q796 856 1578 -12q-782 -858 -1580 0zM708 1048q0 -118 84 -204q88 -88 209 -88t205 88q88 86 88 204q0 122 -88 210q-84 84 -205 84t-209 -84q-84 -88 -84 -210zM870 1048q0 56 38 94t92 38q52 0 90 -38q42 -38 42 -94q0 -54 -42 -90q-38 -38 -90 -38 q-54 0 -92 38q-38 36 -38 90z" />
<glyph unicode="&#xac;" d="M184 580v232q58 0 116 2q240 2 364 90q68 56 148 206v-2q108 208 226 286q174 128 510 134v150l270 -268q-134 -136 -270 -270v152q-244 -4 -376 -90q-76 -58 -152 -204q-112 -210 -212 -282q-172 -136 -506 -136h-118zM184 1292v236h118q334 -2 506 -136q34 -26 70 -68 q-58 -74 -114 -180l-4 -6l-16 -26q-42 62 -80 92q-124 88 -364 88h-116zM956 784q58 76 116 186q8 14 16 26q40 -58 84 -90q132 -86 376 -92v142l142 -144l128 -126l-270 -270v164q-336 6 -510 132q-42 28 -82 72z" />
<glyph unicode="&#xb4;" d="M256 1048q0 -312 218 -532q222 -220 532 -220t530 220t220 532t-220 532t-530 220h-10q-304 -4 -522 -220q-218 -220 -218 -532zM332 1736q0 -82 38 -148q26 36 58 66q188 186 432 228q-18 30 -44 58q-84 80 -202 80t-202 -80q-80 -86 -80 -204zM360 1047q0 269 188 459 q190 190 458 190t456 -190q190 -190 190 -459t-190 -457q-188 -192 -456 -192t-458 192q-188 188 -188 457zM894 1049q0 -47 32 -79q34 -34 80 -34t82 34q28 30 32 70l8 2l260 76q14 4 20 16t4 26q-4 14 -16 20q-14 6 -26 2l-262 -76h-2q-8 12 -18 24q-22 20 -48 28v4v408 q0 14 -10 24t-24 10t-24 -10t-10 -24v-408v-4q-26 -8 -46 -28q-32 -34 -32 -81zM1152 1882q242 -42 428 -228q32 -32 60 -66q42 64 42 148q0 118 -84 204q-82 80 -200 80q-120 0 -202 -80q-28 -28 -44 -58z" />
<glyph unicode="&#xf7;" d="M262 1370l396 134l134 -396q-90 46 -180 90q-56 -138 -6 -284q56 -162 210 -240q132 -64 274 -34q24 6 46 14q38 12 72 32l58 -170q-36 -18 -74 -30l-42 -14q-212 -56 -414 42q-222 110 -300 342q-74 216 14 422zM734 1582q36 18 74 30h2q232 80 454 -30 q220 -108 300 -342q70 -206 -6 -404q88 -42 178 -86l-396 -136l-134 396l190 -94q46 132 -2 266q-56 164 -210 240q-156 78 -318 22q-40 -14 -74 -34z" />
<glyph unicode="&#x2000;" horiz-adv-x="1024" />
<glyph unicode="&#x2001;" />
<glyph unicode="&#x2002;" horiz-adv-x="1024" />
<glyph unicode="&#x2003;" />
<glyph unicode="&#x2004;" horiz-adv-x="682" />
<glyph unicode="&#x2005;" horiz-adv-x="512" />
<glyph unicode="&#x2006;" horiz-adv-x="341" />
<glyph unicode="&#x2007;" horiz-adv-x="341" />
<glyph unicode="&#x2008;" horiz-adv-x="256" />
<glyph unicode="&#x2009;" horiz-adv-x="409" />
<glyph unicode="&#x200a;" horiz-adv-x="113" />
<glyph unicode="&#x201c;" d="M300 816v460q0 256 256 256h558v106v84l268 -268l-268 -268v86v100h-558q-96 0 -96 -96v-460q0 -96 96 -96h58l-36 -36q-18 -18 -18 -43t18 -43l38 -38h-60q-256 0 -256 256zM622 642l268 268v-82v-108h554q96 0 96 96v460q0 96 -96 96h-60l42 40q16 18 16 43t-16 41 l-36 36h54q256 0 256 -256v-460q0 -256 -256 -256h-554v-104v-82z" />
<glyph unicode="&#x201d;" d="M216 594v22q48 4 72 34q20 30 76 162q126 294 250 586h24q74 -164 146 -330q-32 -72 -62 -144l-126 306q-68 -166 -138 -330h254l-20 -48h-256l-56 -144l-8 -40q0 -30 24 -42q16 -6 58 -10v-22h-238zM512 428v36q70 8 106 52q34 46 122 248l384 902h36 q230 -520 458 -1042q46 -102 72 -128q28 -24 94 -32v-36h-468v36q80 8 104 16q22 12 22 52l-8 46l-98 250h-486l-86 -220l-12 -64q0 -46 36 -64q24 -12 88 -16v-36h-364zM844 594q32 76 60 154h20l12 -28q28 -66 48 -84q16 -14 60 -20v-22h-200zM880 902h424l-212 506z" />
<glyph unicode="&#x202f;" horiz-adv-x="409" />
<glyph unicode="&#x205f;" horiz-adv-x="512" />
<glyph unicode="&#xe000;" horiz-adv-x="1810" d="M0 0v1810h1810v-1810h-1810z" />
</font>
</defs>
</svg>
