<?xml version="1.0" encoding="utf-8"?>
<!-- Generator: Adobe Illustrator 20.1.0, SVG Export Plug-In . SVG Version: 6.00 Build 0)  -->
<svg version="1.1" xmlns="http://www.w3.org/2000/svg" xmlns:xlink="http://www.w3.org/1999/xlink" x="0px" y="0px"
	 viewBox="0 0 371.522 371.521" style="enable-background:new 0 0 371.522 371.521;" xml:space="preserve">
<g id="Background" style="display:none;">
	<rect x="-588.21" y="-64.239" style="display:inline;fill:#EAEBED;" width="512" height="500"/>
	<rect x="-76.21" y="-64.239" style="display:inline;fill:#3B5A9A;" width="512" height="500"/>
	<g id="Frame" style="display:inline;">
		<rect x="-588.21" y="-44.239" style="fill:#FFFFFF;" width="1024" height="0.438"/>
		<rect x="-588.21" y="-24.239" style="fill:#FFFFFF;" width="1024" height="0.438"/>
		<rect x="-96.428" y="-64.239" style="fill:#FFFFFF;" width="0.438" height="500"/>
		<rect x="-568.21" y="-64.239" style="fill:#FFFFFF;" width="0.438" height="500"/>
		<rect x="-56.428" y="-64.239" style="fill:#FFFFFF;" width="0.438" height="500"/>
		<rect x="415.353" y="-64.239" style="fill:#FFFFFF;" width="0.438" height="500"/>
		<rect x="-588.21" y="415.323" style="fill:#FFFFFF;" width="1024" height="0.438"/>
	</g>
	<g id="Text" style="display:inline;">
		<text transform="matrix(1 0 0 1 -560.7092 -30.2076)"><tspan x="0" y="0" style="fill:#333333; font-family:'Helvetica'; font-size:10px;">Facebook </tspan><tspan x="46.694" y="0" style="fill:#333333; font-family:'Helvetica'; font-size:10px;">“</tspan><tspan x="50.844" y="0" style="fill:#333333; font-family:'Helvetica'; font-size:10px; letter-spacing:1;">f</tspan><tspan x="54.633" y="0" style="fill:#333333; font-family:'Helvetica'; font-size:10px;">” Logo</tspan></text>
		<text transform="matrix(1 0 0 1 -151.8303 -30.2076)" style="fill:#333333; font-family:'Helvetica'; font-size:10px;">CMYK / .ai</text>
		<text transform="matrix(1 0 0 1 -48.7092 -30.2076)"><tspan x="0" y="0" style="fill:#FFFFFF; font-family:'Helvetica'; font-size:10px;">Facebook </tspan><tspan x="46.694" y="0" style="fill:#FFFFFF; font-family:'Helvetica'; font-size:10px;">“</tspan><tspan x="50.844" y="0" style="fill:#FFFFFF; font-family:'Helvetica'; font-size:10px; letter-spacing:1;">f</tspan><tspan x="54.633" y="0" style="fill:#FFFFFF; font-family:'Helvetica'; font-size:10px;">” Logo</tspan></text>
		<text transform="matrix(1 0 0 1 360.1697 -30.2076)" style="fill:#FFFFFF; font-family:'Helvetica'; font-size:10px;">CMYK / .ai</text>
	</g>
</g>
<g id="White">
	<path id="White_2_" style="fill:#FFFFFF;" d="M299.507,48.313H62.074c-8.137,0-14.73,6.594-14.73,14.73v237.434
		c0,8.135,6.594,14.73,14.73,14.73H189.9V211.852h-34.781v-40.28H189.9v-29.705c0-34.473,21.055-53.244,51.807-53.244
		c14.73,0,27.391,1.097,31.08,1.587v36.026l-21.328,0.01c-16.725,0-19.963,7.947-19.963,19.609v25.717h39.887l-5.193,40.28h-34.693
		v103.356h68.012c8.135,0,14.73-6.596,14.73-14.73V63.044C314.238,54.907,307.642,48.313,299.507,48.313z"/>
</g>
<g id="Blue" style="display:none;">
	<path id="Blue_1_" style="display:inline;fill:#3C5A99;" d="M-212.493,315.208c8.134,0,14.73-6.596,14.73-14.73V63.044
		c0-8.137-6.596-14.73-14.73-14.73h-237.433c-8.138,0-14.73,6.594-14.73,14.73v237.434c0,8.135,6.593,14.73,14.73,14.73H-212.493z"
		/>
	<path id="f" style="display:inline;fill:#FFFFFF;" d="M-280.505,315.208V211.852h34.693l5.194-40.28h-39.887v-25.717
		c0-11.662,3.238-19.609,19.962-19.609l21.33-0.01V90.211c-3.69-0.49-16.351-1.587-31.081-1.587
		c-30.752,0-51.806,18.771-51.806,53.244v29.705h-34.781v40.28h34.781v103.356H-280.505z"/>
</g>
</svg>
